<?xml version="1.0" encoding="UTF-8"?>
<svg version="1.1" xmlns="http://www.w3.org/2000/svg" width="3000" height="1689">
<path d="M0 0 C19.8 0 39.6 0 60 0 C60 252.45 60 504.9 60 765 C237.25159331 772.88883833 237.25159331 772.88883833 412.5625 759.875 C413.72249512 759.66254639 414.88249023 759.45009277 416.07763672 759.23120117 C458.86312447 751.04342928 501.23419382 734.08077158 537 709 C538.37484511 708.05055692 539.74985696 707.10135526 541.125 706.15234375 C549.37647206 700.42627232 557.35650592 694.52678502 565 688 C566.17812567 687.00750409 567.35652812 686.01533667 568.53515625 685.0234375 C575.18511325 679.40159885 581.64356753 673.72952744 587.55078125 667.31640625 C589 666 589 666 591 666 C591 665.34 591 664.68 591 664 C592.62476369 662.27041285 594.28354646 660.6364324 596 659 C602.54308711 652.71003038 608.34946055 646.09707755 614 639 C614.94783401 637.84131379 615.89711972 636.68381397 616.84765625 635.52734375 C628.07314204 621.80121237 637.86824615 607.18918856 647 592 C647.36270996 591.39849121 647.72541992 590.79698242 648.09912109 590.17724609 C669.82060664 553.78954052 690.28809216 507.41564314 693.5625 464.5 C693.89513109 460.20973783 693.89513109 460.20973783 695 458 C695.20715337 455.51703674 695.37365766 453.04957232 695.5 450.5625 C695.86578212 443.40265363 695.86578212 443.40265363 697 440 C697.09287249 438.24663837 697.12791883 436.48994979 697.12939453 434.73413086 C697.13254669 433.65969223 697.13569885 432.5852536 697.13894653 431.47825623 C697.1369223 430.31883011 697.13489807 429.15940399 697.1328125 427.96484375 C697.13376923 426.77524551 697.13472595 425.58564728 697.13571167 424.36000061 C697.13639254 421.84408516 697.13454475 419.32816794 697.13037109 416.81225586 C697.12501687 412.94966715 697.1303217 409.08719448 697.13671875 405.22460938 C697.13605804 402.78385391 697.13477704 400.34309852 697.1328125 397.90234375 C697.13483673 396.7408934 697.13686096 395.57944305 697.13894653 394.38279724 C697.13421829 392.77586754 697.13421829 392.77586754 697.12939453 391.13647461 C697.12859894 390.19066025 697.12780334 389.24484589 697.12698364 388.27037048 C697.14867625 385.96687937 697.14867625 385.96687937 696 384 C695.84084709 381.93985399 695.72295071 379.87646146 695.625 377.8125 C695.20055168 371.14455376 694.08693283 364.9227755 692.68359375 358.3828125 C692.14915029 355.73808086 691.77143995 353.24304671 691.5625 350.5625 C690.95753929 344.44567507 689.2992616 338.55239283 687.70703125 332.6328125 C687.20048 330.74653879 686.70132642 328.85827241 686.20703125 326.96875 C668.1488531 258.33133078 628.1969847 190.60965009 573 145 C572.20698486 144.33629395 572.20698486 144.33629395 571.39794922 143.65917969 C518.58059836 99.52823625 457.25351879 72.52157082 389 64 C388.01925093 63.87583721 388.01925093 63.87583721 387.01868874 63.74916607 C381.91854543 63.13803693 376.91453206 62.84889698 371.78050232 62.84178162 C371.00695404 62.83685196 370.23340576 62.8319223 369.43641663 62.82684326 C366.86443281 62.81160019 364.29247336 62.8031427 361.72045898 62.79467773 C359.83704702 62.78495155 357.95363718 62.77480551 356.07022953 62.76427555 C351.04442481 62.73732834 346.01861144 62.71609803 340.99277496 62.69608307 C336.26994526 62.67639965 331.54714839 62.65151888 326.82434082 62.6270752 C313.02875202 62.55868276 299.23312305 62.49859462 285.4375 62.4375 C254.603125 62.293125 223.76875 62.14875 192 62 C192 147.47 192 232.94 192 321 C212.13 320.67 232.26 320.34 253 320 C252.98839844 314.74707031 252.97679687 309.49414062 252.96484375 304.08203125 C252.95248429 296.65885663 252.94399873 289.23568196 252.9375 281.8125 C252.93621597 280.35657377 252.93621597 280.35657377 252.93490601 278.87123489 C252.89641362 229.24191347 253.4478219 179.62700691 254 130 C317.36 130 380.72 130 446 130 C446 318.1 446 506.2 446 700 C381.98 700 317.96 700 252 700 C252 634.66 252 569.32 252 502 C231.21 502 210.42 502 189 502 C189 567.34 189 632.68 189 700 C168.87 700 148.74 700 128 700 C128 614.53 128 529.06 128 441 C189.38 441 250.76 441 314 441 C314 506.01 314 571.02 314 638 C337.43 638.33 360.86 638.66 385 639 C385 491.49 385 343.98 385 192 C361.9 192 338.8 192 315 192 C315 254.7 315 317.4 315 382 C253.95 382 192.9 382 130 382 C129.95966865 286.4281465 129.95966865 286.4281465 129.95117188 246.61523438 C129.94921386 237.50154621 129.94719333 228.38785805 129.94506836 219.27416992 C129.94480461 218.13183944 129.94454086 216.98950896 129.94426912 215.81256241 C129.93991394 197.34480407 129.93202691 178.87704884 129.9228472 160.40929235 C129.91351198 141.4714099 129.90794467 122.53352907 129.90591151 103.59564441 C129.904536 91.89994363 129.90018395 80.20425159 129.89208353 68.5085535 C129.88681769 60.49997166 129.88519533 52.49139437 129.88649862 44.48281092 C129.88714226 39.85494708 129.88612164 35.22709859 129.88079453 30.59923744 C129.8759612 26.36972698 129.8756609 22.14024231 129.87910111 17.91073071 C129.87952687 16.37371045 129.87823056 14.83668864 129.87511682 13.29967148 C129.8711538 11.22417061 129.87323598 9.14876516 129.87695217 7.07326603 C129.87657245 5.91625818 129.87619273 4.75925034 129.8758015 3.56718165 C130 1 130 1 131 0 C133.85997809 -0.10017417 136.69588059 -0.13438686 139.55636597 -0.12698364 C140.91952177 -0.12932363 140.91952177 -0.12932363 142.31021607 -0.13171089 C145.38114321 -0.1357259 148.45202163 -0.13252902 151.52294922 -0.12939453 C153.7157138 -0.1307486 155.90847815 -0.13252856 158.10124207 -0.13470459 C164.08421553 -0.13928527 170.06717184 -0.13748494 176.05014563 -0.1343255 C182.32494497 -0.13179689 188.59974283 -0.13414162 194.87454224 -0.13571167 C206.12008222 -0.13765239 217.36561517 -0.13453195 228.6111535 -0.12945233 C238.75184061 -0.12501257 248.89251623 -0.12573611 259.03320312 -0.13037109 C270.83207067 -0.13576154 282.63093152 -0.13769201 294.42980015 -0.13475883 C300.66532931 -0.1332122 306.90085061 -0.13295667 313.13637924 -0.13629532 C379.29068364 -0.16680042 379.29068364 -0.16680042 401.625 2.75 C402.3072464 2.83647797 402.9894928 2.92295593 403.69241333 3.01205444 C444.17904751 8.16144805 483.07173124 19.66344635 520 37 C521.00804687 37.47308594 522.01609375 37.94617188 523.0546875 38.43359375 C544.61432684 48.65918104 564.7909231 60.86129159 584 75 C584.67611328 75.49209961 585.35222656 75.98419922 586.04882812 76.49121094 C604.35974195 89.82954011 621.08638171 104.89862148 637.09204102 120.90673828 C638.69204519 122.50453893 640.29993615 124.09411551 641.90820312 125.68359375 C648.39281619 132.13349553 654.30064433 138.8345509 660 146 C660.93470003 147.10189561 661.87605151 148.19823669 662.828125 149.28515625 C728.48786094 224.58204699 760.6686459 326.28469863 758.6403656 442.72392273 C752.84278297 525.55485346 719.2201089 606.9823941 667.26416016 671.43164062 C666.06994134 672.91322843 664.88430494 674.40172215 663.69921875 675.890625 C658.94212682 681.80530413 653.94404225 687.42944413 648.7734375 692.98046875 C646.68324413 695.2305385 644.66630536 697.53414968 642.66015625 699.859375 C638.96242737 704.10180469 635.0522611 708.09582334 631.0625 712.0625 C630.39798828 712.73087891 629.73347656 713.39925781 629.04882812 714.08789062 C624.53048587 718.59746791 619.83824544 722.83814265 615 727 C613.9519312 727.92573352 612.90498105 728.85273572 611.859375 729.78125 C595.67740048 744.00311049 578.1083477 756.36786213 560 768 C559.35853027 768.41411133 558.71706055 768.82822266 558.05615234 769.25488281 C518.68954679 794.43817243 474.07461704 811.23088827 428.375 820.3125 C427.23554932 820.54275879 426.09609863 820.77301758 424.92211914 821.01025391 C285.73254137 847.29936837 141.65047158 826 0 826 C0 553.42 0 280.84 0 0 Z " fill="#000000" transform="translate(1121,311)"/>
<path d="M0 0 C5.25451615 0.71202865 7.89456867 2.0343319 12.0625 5.375 C12.61905273 5.81763184 13.17560547 6.26026367 13.74902344 6.71630859 C15.51254801 8.12881157 17.2585767 9.56035882 19 11 C19.5676709 11.46857422 20.1353418 11.93714844 20.72021484 12.41992188 C24.01187029 15.15018771 27.27110743 17.91571966 30.50732422 20.71142578 C31.93892059 21.94727231 33.37751642 23.17499667 34.81640625 24.40234375 C35.64011719 25.11519531 36.46382812 25.82804688 37.3125 26.5625 C38.38951172 27.49255859 38.38951172 27.49255859 39.48828125 28.44140625 C41 30 41 30 41 32 C41.99 32.33 42.98 32.66 44 33 C45.5078125 34.49609375 45.5078125 34.49609375 47.125 36.4375 C49.74160906 39.53482221 52.4226599 42.53444555 55.1875 45.5 C100.20361992 95.56037105 124.20407034 164.45092763 124.25 231.1875 C124.25067474 232.07228027 124.25134949 232.95706055 124.25204468 233.86865234 C124.23447167 248.42895361 123.52781349 262.63215474 121 277 C120.82839355 277.98774414 120.65678711 278.97548828 120.47998047 279.99316406 C111.34120205 330.93838282 88.71049837 379.46599357 54.36328125 418.27734375 C51.93939593 420.95385105 51.93939593 420.95385105 50 424 C49.34 424 48.68 424 48 424 C47.77570313 424.55042969 47.55140625 425.10085938 47.3203125 425.66796875 C39.33378475 439.7743506 17.39246829 456.60927304 3 464 C2.01 464 1.02 464 0 464 C-0.20908462 453.98590569 -0.36872201 443.9723355 -0.46630955 433.95649815 C-0.51316257 429.30492801 -0.57664382 424.65485748 -0.67895508 420.00415039 C-0.77718248 415.5106491 -0.83064695 411.01858422 -0.85389519 406.52409172 C-0.87044837 404.81478203 -0.90277573 403.10554576 -0.95157051 401.39685249 C-1.31836281 388.01286305 -1.31836281 388.01286305 1.94622803 383.02851868 C4.18482604 380.78819866 6.48540684 378.91646005 9 377 C11.26927769 374.45926801 13.32513985 371.78225985 15.375 369.0625 C15.92244873 368.3401416 16.46989746 367.6177832 17.03393555 366.87353516 C22.94426118 358.93556709 28.08541696 350.58173973 33 342 C33.36963867 341.35853027 33.73927734 340.71706055 34.12011719 340.05615234 C43.1619044 324.21010775 49.49830894 307.56622358 54.4074707 290.02783203 C54.90210232 288.33503837 55.47503472 286.66537865 56.06640625 285.00390625 C57.31909022 280.97330384 57.92748461 276.91623852 58.5625 272.75 C59.87328375 264.25343249 59.87328375 264.25343249 61 262 C61.24369792 259.24410745 61.42806201 256.51178781 61.5625 253.75 C61.6042334 252.90953125 61.6459668 252.0690625 61.68896484 251.203125 C63.07652633 221.40098876 63.07652633 221.40098876 59 192 C58.76796875 190.78441406 58.5359375 189.56882812 58.296875 188.31640625 C51.35188989 152.64387053 32.01558875 101.46465099 1.36528015 78.79069519 C-0.77492556 75.98361118 -0.39207076 72.97708586 -0.34057617 69.59106445 C-0.34123329 68.46386993 -0.34123329 68.46386993 -0.34190369 67.31390381 C-0.33981367 64.83009863 -0.31647326 62.3469685 -0.29296875 59.86328125 C-0.28737354 58.14121367 -0.28310309 56.41914132 -0.28010559 54.69706726 C-0.26865091 50.16448788 -0.23917845 45.63219688 -0.20599365 41.09973145 C-0.17530615 36.47473044 -0.16160308 31.84968284 -0.14648438 27.22460938 C-0.11430928 18.14961288 -0.06310545 9.07483042 0 0 Z " fill="#000000" transform="translate(1629,491)"/>
<path d="" fill="#090909" transform="translate(0,0)"/>
<path d="M0 0 C2 1 2 1 2 1 Z " fill="#0C0C0C" transform="translate(1747,1028)"/>
<path d="" fill="#0A0A0A" transform="translate(0,0)"/>
<path d="M0 0 C2 1 2 1 2 1 Z " fill="#212121" transform="translate(1758,1018)"/>
<path d="" fill="#131313" transform="translate(0,0)"/>
<path d="" fill="#1D1D1D" transform="translate(0,0)"/>
<path d="" fill="#1B1B1B" transform="translate(0,0)"/>
<path d="" fill="#151515" transform="translate(0,0)"/>
<path d="" fill="#171717" transform="translate(0,0)"/>
<path d="" fill="#0A0A0A" transform="translate(0,0)"/>
<path d="" fill="#111111" transform="translate(0,0)"/>
<path d="" fill="#1B1B1B" transform="translate(0,0)"/>
<path d="" fill="#151515" transform="translate(0,0)"/>
<path d="" fill="#161616" transform="translate(0,0)"/>
<path d="" fill="#101010" transform="translate(0,0)"/>
<path d="" fill="#080808" transform="translate(0,0)"/>
<path d="" fill="#080808" transform="translate(0,0)"/>
<path d="" fill="#1A1A1A" transform="translate(0,0)"/>
<path d="" fill="#1A1A1A" transform="translate(0,0)"/>
<path d="" fill="#080808" transform="translate(0,0)"/>
<path d="" fill="#0C0C0C" transform="translate(0,0)"/>
<path d="" fill="#101010" transform="translate(0,0)"/>
<path d="" fill="#080808" transform="translate(0,0)"/>
<path d="" fill="#0B0B0B" transform="translate(0,0)"/>
<path d="" fill="#0C0C0C" transform="translate(0,0)"/>
<path d="" fill="#0C0C0C" transform="translate(0,0)"/>
<path d="" fill="#080808" transform="translate(0,0)"/>
<path d="" fill="#0B0B0B" transform="translate(0,0)"/>
<path d="" fill="#111111" transform="translate(0,0)"/>
<path d="" fill="#0C0C0C" transform="translate(0,0)"/>
<path d="" fill="#0C0C0C" transform="translate(0,0)"/>
<path d="" fill="#121212" transform="translate(0,0)"/>
<path d="" fill="#090909" transform="translate(0,0)"/>
<path d="" fill="#151515" transform="translate(0,0)"/>
</svg>
